HIERARCHY
ROOT Hips
{
  OFFSET -125.086 92.215 135.881
  CHANNELS 6 Xposition Yposition Zposition Zrotation Xrotation Yrotation
  JOINT LeftUpLeg
  {
    OFFSET 8.64259 1.95398 -2.38835
    CHANNELS 3 Zrotation Xrotation Yrotation
    JOINT LeftLeg
    {
      OFFSET 43.7702 0 0
      CHANNELS 3 Zrotation Xrotation Yrotation
      JOINT LeftFoot
      {
        OFFSET 40.6238 0 0
        CHANNELS 3 Zrotation Xrotation Yrotation
        JOINT LeftToeBase
        {
          OFFSET 12.7242 0 0
          CHANNELS 3 Zrotation Xrotation Yrotation
          End Site
          {
            OFFSET 0 0 0
          }
        }
      }
    }
  }
  JOINT RightUpLeg
  {
    OFFSET -8.2249 1.95398 -2.59336
    CHANNELS 3 Zrotation Xrotation Yrotation
    JOINT RightLeg
    {
      OFFSET 43.5653 0 0
      CHANNELS 3 Zrotation Xrotation Yrotation
      JOINT RightFoot
      {
        OFFSET 40.6238 0 0
        CHANNELS 3 Zrotation Xrotation Yrotation
        JOINT RightToeBase
        {
          OFFSET 12.7242 0 0
          CHANNELS 3 Zrotation Xrotation Yrotation
          End Site
          {
            OFFSET 0 0 0
          }
        }
      }
    }
  }
  JOINT Spine
  {
    OFFSET 0.165834 0.87714 6.61349
    CHANNELS 3 Zrotation Xrotation Yrotation
    JOINT Spine1
    {
      OFFSET 7.38963 1.71661e-005 0
      CHANNELS 3 Zrotation Xrotation Yrotation
      JOINT Spine2
      {
        OFFSET 11.9445 1.14441e-005 0
        CHANNELS 3 Zrotation Xrotation Yrotation
        JOINT Spine3
        {
          OFFSET 14.7254 4.19617e-005 0
          CHANNELS 3 Zrotation Xrotation Yrotation
          JOINT Spine4
          {
            OFFSET 10.9679 0 0
            CHANNELS 3 Zrotation Xrotation Yrotation
            JOINT RightShoulder
            {
              OFFSET 2.46616 -1.6653 3.69651
              CHANNELS 3 Zrotation Xrotation Yrotation
              JOINT RightArm
              {
                OFFSET 13.0012 0 0
                CHANNELS 3 Zrotation Xrotation Yrotation
                JOINT RightForeArm
                {
                  OFFSET 28.7848 1.52588e-005 0
                  CHANNELS 3 Zrotation Xrotation Yrotation
                  JOINT RightHand
                  {
                    OFFSET 26.5688 1.52588e-005 0
                    CHANNELS 3 Zrotation Xrotation Yrotation
                    End Site
                    {
                      OFFSET 0 0 0
                    }
                  }
                }
              }
            }
            JOINT LeftShoulder
            {
              OFFSET 2.38034 -1.29275 -3.7523
              CHANNELS 3 Zrotation Xrotation Yrotation
              JOINT LeftArm
              {
                OFFSET 16.3182 6.10352e-005 0
                CHANNELS 3 Zrotation Xrotation Yrotation
                JOINT LeftForeArm
                {
                  OFFSET 27.0901 0 0
                  CHANNELS 3 Zrotation Xrotation Yrotation
                  JOINT LeftHand
                  {
                    OFFSET 24.5451 1.52588e-005 0
                    CHANNELS 3 Zrotation Xrotation Yrotation
                    End Site
                    {
                      OFFSET 0 0 0
                    }
                  }
                }
              }
            }
            JOINT Neck
            {
              OFFSET 5.0226 -0.0266342 0
              CHANNELS 3 Zrotation Xrotation Yrotation
              JOINT Head
              {
                OFFSET 6.69363 2.86102e-005 0
                CHANNELS 3 Zrotation Xrotation Yrotation
                End Site
                {
                  OFFSET 0 0 0
                }
              }
            }
          }
        }
      }
    }
  }
}
MOTION
Frames:	14
Frame Time:	0.0416667
265.222 84.401 -269.916 96.482 42.3779 82.4821 -173.709 31.7123 86.8382 -59.1609 19.3304 -5.90718 80.8435 16.0269 27.879 35.5192 -1.10633 9.40763 -176.661 40.4435 83.1078 -92.4217 9.15995 -2.2428 69.4113 0.272396 39.8765 -36.4349 8.70083 4.41721 0.936839 6.06055 -89.6155 14.7471 2.04458 0.474476 3.07765 2.06355 0.384362 -19.4674 1.80705 1.06844 0.5452 1.80703 1.06844 87.0268 -46.9906 -106.488 17.647 4.66358 -54.0888 -170.056 -55.0493 179.973 20.5566 -5.71366 -34.8468 -95.6288 -24.9882 59.892 -43.7059 -1.54016 -23.4669 175.379 50.1811 -179.978 -16.5985 2.87135 -27.7784 87.2455 20.7236 -6.90146 -126.634 31.7263 -0.479949 
265.383 84.301 -270.067 96.3504 42.454 82.4959 -173.86 30.9749 86.7108 -58.365 20.5625 -5.67616 81.7321 17.9081 28.6449 33.2339 -1.21954 10.9111 -176.579 40.9526 82.9822 -92.6377 9.36998 -2.24509 70.3462 0.0821606 39.816 -38.6075 8.23951 5.47587 0.930441 6.05947 -89.6174 14.7523 2.03104 0.473471 3.08287 2.04993 0.383624 -19.4621 1.79476 1.06236 0.550579 1.79477 1.06236 87.0055 -46.6641 -106.621 17.0235 4.26708 -53.9454 -169.061 -55.6704 179.973 20.1399 -5.39612 -33.8018 -95.6261 -24.9936 59.9004 -43.7112 -1.51505 -23.5792 175.251 49.3021 -179.979 -16.8861 2.7083 -26.0877 87.223 20.6658 -6.7434 -126.517 31.6683 -0.622634 
265.828 84.0032 -270.489 95.9721 42.6746 82.5405 -174.292 28.9828 86.3825 -56.1724 23.6233 -4.92229 84.27 22.8306 30.2688 26.6455 -1.73443 14.2027 -176.334 42.4069 82.613 -93.2117 9.95278 -2.25538 73.0814 -0.508403 39.5939 -44.2579 6.51373 8.53814 0.912036 6.05234 -89.6237 14.7671 1.99141 0.46645 3.0976 2.01002 0.37831 -19.4469 1.75914 1.04355 0.565706 1.75915 1.04354 86.9555 -45.7224 -106.991 15.2491 3.10768 -53.5372 -166.21 -57.5812 179.971 18.7925 -4.48986 -30.7674 -95.6154 -25.0072 59.929 -43.7314 -1.44449 -23.9039 174.811 46.8104 -179.98 -17.7805 2.16954 -20.9485 87.1594 20.4885 -6.28123 -126.173 31.5038 -1.05135 
266.48 83.5324 -271.126 95.3712 43.0286 82.6272 -174.988 26.2616 86.0632 -52.9444 27.4622 -3.78297 88.1165 29.3107 31.4719 16.8177 -2.80298 17.2117 -175.932 44.6485 82.0179 -93.898 10.8017 -2.27376 77.4757 -1.59906 39.0907 -51.5817 2.55887 13.497 0.882398 6.04104 -89.6353 14.7899 1.92702 0.451798 3.12033 1.94503 0.366517 -19.4236 1.70213 1.01021 0.589034 1.70213 1.01021 86.9091 -44.2267 -107.542 12.4884 1.21193 -52.9112 -161.718 -61.0547 179.968 16.0197 -3.08547 -25.8366 -95.5913 -25.0213 59.9842 -43.7771 -1.33868 -24.4237 173.881 43.0183 -179.981 -19.3492 1.09164 -12.2529 87.0638 20.1831 -5.52986 -125.611 31.2655 -1.78651 
267.256 82.9692 -271.928 94.5697 43.5061 82.7736 -175.88 23.4531 85.9012 -49.1894 31.3695 -2.59728 92.7434 35.8133 31.4471 5.73792 -4.14991 18.9497 -175.367 47.4393 81.216 -94.2428 11.7513 -2.30157 83.1743 -3.37967 38.1323 -58.4343 -4.97891 20.478 0.842396 6.02641 -89.654 14.8193 1.83858 0.426649 3.14961 1.85559 0.345275 -19.3936 1.62537 0.959616 0.619074 1.62535 0.959616 86.9033 -42.2389 -108.211 8.93525 -1.3976 -52.1361 -155.836 -66.7961 179.961 10.3314 -1.37021 -19.0288 -95.5468 -25.0272 60.0749 -43.861 -1.209 -25.1222 172.304 38.3806 -179.982 -21.4802 -0.675972 -0.892535 86.9497 19.7487 -4.5035 -124.832 31.0236 -2.87514 
268.108 82.4073 -272.854 93.5866 44.0983 83.0005 -176.855 21.0292 85.8237 -45.5378 34.9224 -1.51797 97.7044 41.3082 30.1144 -4.75887 -5.37983 19.558 -174.636 50.5301 80.2014 -93.7402 12.5575 -2.33905 89.4509 -6.05677 36.5486 -61.7614 -17.183 30.3274 0.792605 6.00926 -89.6812 14.8539 1.72661 0.387605 3.18409 1.74201 0.311205 -19.3582 1.53027 0.888718 0.654452 1.53029 0.888706 86.9722 -39.8213 -108.938 4.81326 -4.67326 -51.3033 -148.796 -76.3643 179.931 -2.36371 -0.0169179 -10.5715 -95.4752 -25.0164 60.21 -43.9945 -1.0652 -25.9843 170.281 33.4166 -179.983 -23.8565 -2.95438 10.6265 86.8323 19.2078 -3.22357 -123.827 30.9037 -4.38944 
269.009 81.9068 -273.866 92.4391 44.796 83.3299 -177.845 19.1649 85.7427 -42.3965 37.9196 -0.596407 102.672 45.4718 27.8382 -13.7296 -6.2993 19.5003 -173.678 53.7439 78.9023 -92.0133 12.8834 -2.38187 95.1407 -9.68243 34.2257 -55.9763 -32.9604 46.2337 0.733714 5.99018 -89.7186 14.8925 1.59145 0.331363 3.22251 1.60449 0.260978 -19.3188 1.41827 0.794428 0.693819 1.41827 0.794422 87.1409 -37.0377 -109.67 0.37223 -8.51543 -50.5141 40.1593 -86.3224 0.307082 -31.5868 -0.167375 -5.1949 -95.3703 -24.9826 60.3978 -44.1864 -0.914186 -26.9942 168.336 28.6128 -179.983 -26.4009 -5.24745 19.5138 86.7247 18.6274 -1.72729 -122.565 31.1159 -6.43393 
269.937 81.5054 -274.928 91.1429 45.5893 83.7845 -178.829 17.7953 85.6262 -39.7978 40.3484 0.178877 107.365 48.4167 25.1134 -21.0365 -6.8947 19.1225 -172.357 56.9482 77.1593 -88.8742 12.3536 -2.41859 98.8655 -13.9166 31.0902 -32.8804 -44.8151 74.6812 0.66625 5.9698 -89.7679 14.9338 1.43352 0.254794 3.2636 1.44335 0.191437 -19.2767 1.29067 0.673909 0.735924 1.29066 0.673913 87.4226 -33.955 -110.368 -4.12593 -12.7587 -49.8592 49.4803 -57.2804 0.0427871 -70.2034 6.0188 -13.3527 -95.2275 -24.922 60.6463 -44.4412 -0.759545 -28.135 166.857 24.3145 -179.983 -29.3768 -7.15791 24.4632 86.6284 18.1299 -0.0714519 -120.966 31.9707 -9.16776 
270.858 81.231 -276 89.7115 46.4674 84.3845 -179.808 16.7526 85.488 -37.508 42.3178 0.838446 111.528 50.3762 22.3633 -26.9369 -7.21855 18.5931 -170.564 59.9515 74.8233 -84.259 10.6943 -2.43232 99.6119 -17.9911 27.0093 -0.437859 -41.6133 107.83 0.590994 5.94861 -89.8302 14.9767 1.25359 0.1554 3.30637 1.25921 0.100065 -19.233 1.14893 0.52502 0.779688 1.14893 0.525022 87.8197 -30.6401 -111.005 -8.443 -17.1945 -49.3987 56.1139 -26.7742 0.0289174 -90.0241 17.8749 -23.1747 -95.0443 -24.8347 60.9612 -44.7588 -0.601376 -29.3883 165.925 20.627 -179.983 -32.9573 -8.49118 25.7025 86.521 17.8472 1.6896 -118.86 33.8105 -12.8511 
271.736 81.0762 -277.045 88.1558 47.4179 85.1476 179.216 15.9281 85.357 -35.3485 43.9517 1.40595 115.018 51.5817 19.8529 -31.7425 -7.32553 17.985 -168.36 62.4818 71.9122 -78.1126 8.03605 -2.40692 97.1581 -20.9693 22.0294 20.3833 -28.3201 126.439 0.50846 5.9271 -89.9064 15.0202 1.05243 0.0314831 3.34972 1.05278 -0.0148772 -19.1886 0.994303 0.346356 0.824069 0.9943 0.346354 88.3267 -27.1561 -111.563 -12.3943 -21.6131 -49.1519 58.7751 -3.60121 -0.719689 -99.0158 25.0908 -26.9022 -94.8193 -24.7246 61.3477 -45.1349 -0.437347 -30.7354 165.512 17.4674 -179.982 -37.0026 -9.10445 24.0193 86.352 17.8323 3.54164 -115.905 36.8648 -17.9339 
272.661 80.6798 -278.129 86.4851 48.4265 86.0871 178.294 15.8809 85.2415 -34.8131 45.1679 1.97656 119.042 52.694 17.0125 -35.7154 -7.26238 17.3363 -165.74 64.6207 68.4276 -71.1193 5.01417 -2.33985 92.4775 -22.0667 16.7081 31.4729 -15.088 134.443 0.419569 5.90554 -89.9967 15.0637 0.831588 -0.11775 3.39301 0.825602 -0.154246 -19.1443 0.828546 0.137644 0.868393 0.828541 0.137636 88.9317 -23.5638 -112.031 -15.8504 -25.8313 -49.1015 59.3727 1.63052 -7.79088 -105.942 27.8774 -26.5622 -94.5543 -24.5984 61.8081 -45.5611 -0.263601 -32.1562 165.6 14.6762 -179.982 -41.1105 -8.87812 20.2948 86.0427 18.0122 5.52306 -111.47 41.1266 -25.1933 
273.693 80.003 -279.295 84.7089 49.4765 87.211 177.431 16.5551 85.1521 -36.0278 46.0297 2.63301 123.941 53.8908 13.6428 -39.0563 -7.07009 16.6724 -163.074 66.1638 64.7268 -63.4041 -0.434339 -2.23199 85.5446 -21.1298 8.97748 38.0345 -4.73735 138.197 0.325209 5.8843 -90.1009 15.1062 0.592892 -0.292126 3.43533 0.579474 -0.317934 -19.1009 0.653279 -0.100411 0.911783 0.653295 -0.100416 89.6181 -19.9209 -112.407 -18.7333 -29.711 -49.2075 58.9461 -0.633692 -16.2042 -112.32 27.6843 -24.0853 -94.2506 -24.4664 62.3449 -46.0261 -0.0755741 -33.6288 166.164 12.0973 -179.981 -44.7805 -7.81735 15.3837 85.5046 18.2633 7.65345 -104.467 46.2102 -35.8144 
274.714 79.4242 -280.454 82.8375 50.5487 88.5197 176.579 17.1683 85.1239 -37.1382 46.8116 3.32615 128.359 54.7446 10.5365 -41.9038 -6.78378 16.013 -161.707 66.406 62.0682 -53.596 -6.8123 -2.09044 77.2731 -18.024 0.956499 42.4993 3.27037 140.041 0.226468 5.86373 -90.2183 15.147 0.339084 -0.490319 3.47599 0.317175 -0.504781 -19.0591 0.470754 -0.365748 0.953586 0.470758 -0.365751 90.3674 -16.2807 -112.694 -21.0148 -33.1716 -49.4216 57.0672 -4.14323 -23.5625 -117.964 25.3894 -20.7197 -93.9127 -24.3407 62.9572 -46.5168 0.131057 -35.1302 167.147 9.63211 -179.982 -47.6187 -6.10388 9.99858 84.6878 18.584 9.82297 -93.4095 51.0515 -51.1016 
275.716 78.9156 -281.592 80.8834 51.6223 90.0065 175.749 17.7337 85.1674 -38.194 47.5434 4.05939 132.342 55.3574 7.70195 -44.3495 -6.43306 15.3741 -162.765 64.9407 61.5137 -40.7541 -14.1578 -1.88992 68.043 -12.7177 -6.76709 46.0084 9.78525 140.58 0.124703 5.84415 -90.3474 15.1853 0.0734107 -0.71004 3.51417 0.0420988 -0.712596 -19.0196 0.283389 -0.655169 0.993022 0.283409 -0.655164 91.1608 -12.6896 -112.893 -22.7002 -36.1796 -49.6974 53.7 -8.17803 -30.136 -122.545 21.599 -17.1934 -93.5451 -24.2337 63.6433 -47.0193 0.359776 -36.6373 168.452 7.25793 179.988 -49.4465 -4.02538 4.64711 83.6267 19.1388 11.8147 -77.7362 53.7798 -71.1318 
